<svg width="80" height="10" viewBox="0 0 80 10" fill="none" xmlns="http://www.w3.org/2000/svg">
<path d="M18.6118 7.89621H20.7577V2.16484H23.5969V0.195251H18.6118V7.89621Z" fill="white"/>
<path d="M14.1961 1.78859C15.0574 1.78859 15.5683 2.15426 15.7107 2.93269H12.5247C12.7692 2.20495 13.3714 1.78859 14.1961 1.78859ZM14.1742 6.18034C13.1232 6.18034 12.47 5.51054 12.4116 4.42074H17.7361C17.7361 4.42074 17.7689 4.0261 17.7689 3.61697C17.7689 1.30705 16.3785 0.00726318 14.1961 0.00726318C11.8934 0.00726318 10.2913 1.66911 10.2913 4.03334C10.2913 6.39758 11.8715 8.08114 14.1742 8.08114C16.3092 8.08114 17.7434 6.85739 17.7908 5.0652H15.6559C15.5318 5.77122 15.01 6.17672 14.1742 6.17672" fill="white"/>
<path d="M72.5322 0.195251V2.16484H74.7584V7.89621H76.9042V2.16484H79.1304V0.195251H72.5322Z" fill="white"/>
<path d="M6.51787 0.195251L5.0435 4.91286L3.60563 0.195251H1.23351L0 7.89621H1.97069L2.71882 3.10619L4.17129 7.89621H5.86463L7.36454 3.0193L8.08712 7.89621H10.0907L8.8535 0.195251H6.51787Z" fill="white"/>
<path d="M26.7649 6.28894C26.2211 6.28894 25.951 6.02463 25.951 5.64085C25.951 5.2788 26.1408 5.04708 26.7284 4.88053L28.5859 4.36279V4.50399C28.5859 5.49603 27.8013 6.28531 26.7649 6.28531M27.5312 0.00362066C25.2394 0.00362066 23.9366 1.11514 23.9949 3.0087H26.2211C26.232 2.20493 26.6444 1.82115 27.5349 1.82115C28.1699 1.82115 28.5677 2.08545 28.5677 2.48009C28.5677 2.73353 28.4691 2.83129 28.0787 2.94353L26.2868 3.42868C24.5752 3.89212 23.8052 4.59451 23.8052 5.77119C23.8052 7.14701 24.8161 8.07026 26.3087 8.07026C27.4655 8.07026 28.221 7.60682 28.6005 6.73789V7.89285H30.6588V2.77336C30.6588 0.912385 29.4691 0 27.5312 0" fill="white"/>
<path d="M64.8029 0.195251H62.4308L60.763 3.0555H59.9054V0.195251H57.7595V7.89621H59.9054V4.94906H60.7484L62.5439 7.89621H64.9671L62.5987 3.96789L64.8029 0.195251Z" fill="white"/>
<path d="M44.844 6.28886C44.3112 6.28886 44.0411 6.02455 44.0411 5.64077C44.0411 5.27871 44.2309 5.05786 44.8185 4.89131L46.676 4.37357V4.50391C46.676 5.55026 45.8841 6.28523 44.8404 6.28523L44.844 6.28886ZM45.6213 0.00716069C43.3295 0.00716069 42.0267 1.11868 42.085 3.01224H44.3112C44.3221 2.20847 44.7345 1.82469 45.625 1.82469C46.26 1.82469 46.6614 2.08899 46.6614 2.48363C46.6614 2.73707 46.5629 2.83483 46.1724 2.94707L44.3805 3.43222C42.669 3.89566 41.8989 4.59805 41.8989 5.77473C41.8989 7.15055 42.9098 8.0738 44.4024 8.0738C45.5593 8.0738 46.3147 7.62485 46.6943 6.74143V7.89639H48.7525V2.7769C48.7525 0.915924 47.5628 0.00354004 45.625 0.00354004" fill="white"/>
<path d="M53.3982 6.10431C52.4421 6.10431 51.8618 5.44536 51.8618 4.04782C51.8618 2.65028 52.4494 1.98048 53.4201 1.98048C54.3325 1.98048 54.8762 2.65028 54.8762 4.04782C54.8762 5.49967 54.3544 6.10431 53.3946 6.10431H53.3982ZM54.0004 0.00726318C52.9712 0.00726318 52.2012 0.525005 51.8983 1.3505V0.195532H49.7524V10H51.8983V6.76687C52.2158 7.58512 52.9822 8.0739 54.0004 8.0739C55.7813 8.0739 56.971 6.70894 56.971 4.04782C56.971 1.3867 55.7813 0.0108838 54.0004 0.0108838" fill="white"/>
<path d="M37.8335 0.195251L36.3592 4.91286L34.9213 0.195251H32.5492L31.3157 7.89621H33.2864L34.0345 3.10619L35.487 7.89621H37.1803L38.6802 3.0193L39.4028 7.89621H41.4063L40.1728 0.195251H37.8335Z" fill="white"/>
<path d="M68.4852 1.78859C69.3465 1.78859 69.8574 2.15426 69.9997 2.93269H66.8138C67.0583 2.20495 67.6605 1.78859 68.4852 1.78859ZM68.4633 6.18034C67.4232 6.18034 66.7627 5.51054 66.7007 4.42074H72.0252C72.0252 4.42074 72.058 4.0261 72.058 3.61697C72.058 1.30705 70.6676 0.00726318 68.4889 0.00726318C66.1861 0.00726318 64.584 1.66911 64.584 4.03334C64.584 6.39758 66.1642 8.08114 68.467 8.08114C70.6019 8.08114 72.0398 6.85739 72.0836 5.0652H69.9486C69.8246 5.77122 69.3027 6.17672 68.4706 6.17672" fill="white"/>
</svg>
