<svg width="23" height="29" viewBox="0 0 23 29" fill="none" xmlns="http://www.w3.org/2000/svg">
<path d="M22.9884 23.7325L21.5011 6.99692C21.4374 6.31198 20.8778 5.79585 20.1981 5.79585H17.5064C17.4427 5.24996 17.3401 4.73321 17.1966 4.24562C16.9366 3.3615 16.5409 2.60612 16.0101 1.97947C15.4793 1.35282 14.8086 0.865226 13.9992 0.519111C13.1898 0.172996 12.237 -6.10352e-05 11.1376 -6.10352e-05C10.1805 -6.10352e-05 9.33384 0.142635 8.59591 0.429243C7.85797 0.71585 7.23832 1.16094 6.73576 1.76452C6.23379 2.36809 5.85011 3.13258 5.58412 4.05859C5.43401 4.58262 5.32653 5.16373 5.26169 5.79706H2.8011C2.12021 5.79706 1.5606 6.3138 1.50055 6.99814L0.0210805 23.71C-0.135033 25.7321 0.613111 26.7151 1.36185 27.5173C2.15503 28.3534 3.47299 28.7487 4.42408 28.7499H18.3482C20.1741 28.7038 20.8556 28.2854 21.8722 27.2629C22.6293 26.4231 23.0784 25.5967 22.989 23.7325H22.9884ZM8.29329 3.25645C8.62293 2.86723 9.03302 2.58426 9.52118 2.40756C10.5743 2.02501 11.9409 2.0402 12.9935 2.40392C14.4478 2.9067 15.1695 4.16121 15.2283 5.74119H7.41125C7.44848 5.49588 7.49471 4.98824 7.55115 4.77511C7.71627 4.1521 7.96365 3.64568 8.29329 3.25645ZM19.6427 25.5851C19.3287 25.845 18.7445 26.1067 18.3464 26.1067H4.42348C4.01758 26.0764 3.50601 25.8656 3.17097 25.5256C2.83592 25.1856 2.42222 24.6925 2.50088 23.6954L3.87888 8.32066H15.1671V12.8669L17.5856 10.9997V8.32066H19.0045L20.3633 23.806C20.4527 24.7156 19.9568 25.3252 19.6427 25.5851Z" fill="white"/>
</svg>
