<svg width="48" height="51" viewBox="0 0 48 51" fill="none" xmlns="http://www.w3.org/2000/svg">
<g clip-path="url(#clip0_350_1088)">
<path d="M47.9231 24.8727C47.7145 22.4634 47.1107 20.1181 46.1519 17.9473C45.6655 16.8646 45.1018 15.8215 44.4422 14.8448C44.2818 14.5982 44.1069 14.3602 43.936 14.1216C43.8506 14.0023 43.7582 13.8871 43.6693 13.7701C43.5798 13.6537 43.4915 13.5367 43.3967 13.4243L43.1172 13.0844C43.0219 12.9731 42.9225 12.8648 42.8255 12.7553L42.5332 12.4286L42.46 12.3473L42.3833 12.269L42.2293 12.1128C41.4168 11.2749 40.5358 10.5154 39.6031 9.83891C38.6675 9.16527 37.6808 8.57519 36.6586 8.07039C34.6147 7.06137 32.4285 6.39523 30.2162 6.09961C32.3652 6.70122 34.3846 7.65203 36.1797 8.87772C37.0776 9.49085 37.9196 10.1726 38.6925 10.9153C39.4631 11.6604 40.1639 12.4655 40.7834 13.3183L40.9008 13.4768L40.9595 13.5563L41.0141 13.6387L41.2326 13.9666C41.3047 14.0761 41.3791 14.1838 41.4494 14.2939L41.6528 14.6293C41.7219 14.7399 41.7853 14.8546 41.8492 14.9681C41.9125 15.0822 41.9794 15.194 42.0392 15.3098C42.1595 15.5415 42.2827 15.7703 42.3914 16.0065C42.8452 16.9418 43.2032 17.9174 43.4874 18.9056C44.0424 20.888 44.2591 22.9411 44.1447 24.9465C44.0249 26.9513 43.5722 28.9065 42.8086 30.6848C42.0416 32.4574 40.9537 34.0737 39.6427 35.4631C38.3276 36.849 36.7916 38.0067 35.1412 38.8757C34.1649 39.3862 33.1497 39.7948 32.12 40.0938L31.2744 36.437L20.2417 46.6101L34.6415 50.9988L33.7477 47.1328C35.5318 46.4171 37.199 45.487 38.7146 44.3892C40.8072 42.8662 42.618 41.0251 44.0784 38.9575C45.533 36.8876 46.6348 34.5843 47.2862 32.1692C47.9307 29.7565 48.1236 27.2797 47.9214 24.871L47.9231 24.8727Z" fill="white"/>
<path d="M9.30559 40.0852C8.53502 39.3395 7.83418 38.5351 7.2147 37.6822L7.09731 37.5238L7.03861 37.4443L6.98399 37.3619L6.76548 37.034C6.69342 36.9245 6.61904 36.8167 6.54872 36.7067L6.34533 36.3713C6.27617 36.2606 6.21283 36.146 6.14891 36.0324C6.08556 35.9183 6.01873 35.8065 5.95888 35.6907C5.83858 35.4591 5.71539 35.2303 5.60613 34.994C5.15227 34.0588 4.7943 33.0832 4.51013 32.0949C3.95457 30.1126 3.73839 28.0594 3.85287 26.0541C3.97258 24.0493 4.42528 22.0941 5.18888 20.3158C5.95597 18.5432 7.04384 16.9268 8.35487 15.5375C9.66996 14.1516 11.2059 12.9939 12.8563 12.1249C13.8326 11.6144 14.8478 11.2058 15.8776 10.9067L16.7231 14.5636L27.7558 4.39046L13.3566 0L14.2504 3.86607C12.4663 4.58178 10.7991 5.51185 9.28351 6.60961C7.19087 8.13264 5.38007 9.97376 3.9197 12.0414C2.46514 14.1112 1.36332 16.4145 0.711875 18.8296C0.0674041 21.2412 -0.12553 23.7185 0.0767021 26.1272C0.285327 28.5366 0.889119 30.8819 1.84798 33.0526C2.33438 34.1354 2.89808 35.1784 3.55766 36.1552C3.71805 36.4018 3.89297 36.6398 4.06382 36.8784C4.14925 36.9977 4.24165 37.1129 4.33056 37.2299C4.42005 37.3463 4.50838 37.4633 4.60311 37.5756L4.88263 37.9156C4.97793 38.0268 5.07731 38.1352 5.17436 38.2447L5.46666 38.5714L5.53989 38.6527L5.61659 38.731L5.77059 38.8872C6.58301 39.7251 7.464 40.4846 8.39671 41.1611C9.33232 41.8347 10.3191 42.4248 11.3413 42.9296C13.3851 43.9386 15.5713 44.6048 17.7837 44.9004C15.6347 44.2988 13.6152 43.3479 11.8201 42.1223C10.9223 41.5091 10.0802 40.8274 9.30734 40.0846L9.30559 40.0852Z" fill="white"/>
</g>
<defs>
<clipPath id="clip0_350_1088">
<rect width="48" height="51" fill="white"/>
</clipPath>
</defs>
</svg>
