<svg width="200" height="27" viewBox="0 0 200 27" fill="none" xmlns="http://www.w3.org/2000/svg">
<path d="M47.0411 21.3197H52.4647V5.84517H59.6409V0.527344H47.0411V21.3197Z" fill="white"/>
<path d="M35.8809 4.82916C38.0577 4.82916 39.349 5.81648 39.7087 7.91819H31.6563C32.2743 5.95333 33.7963 4.82916 35.8809 4.82916ZM35.8255 16.6867C33.169 16.6867 31.518 14.8783 31.3704 11.9359H44.828C44.828 11.9359 44.911 10.8704 44.911 9.76574C44.911 3.52903 41.3967 0.0196533 35.8809 0.0196533C30.0606 0.0196533 26.0114 4.50657 26.0114 10.8899C26.0114 17.2733 30.0053 21.8188 35.8255 21.8188C41.2214 21.8188 44.8464 18.5147 44.9663 13.6759H39.5704C39.2568 15.5821 37.9378 16.677 35.8255 16.677" fill="white"/>
<path d="M183.323 0.527344V5.84517H188.95V21.3197H194.374V5.84517H200V0.527344H183.323Z" fill="white"/>
<path d="M16.4738 0.527344L12.7473 13.2647L9.11314 0.527344H3.11765L0 21.3197H4.98087L6.87175 8.38678L10.5428 21.3197H14.8227L18.6137 8.15217L20.44 21.3197H25.5039L22.377 0.527344H16.4738Z" fill="white"/>
<path d="M67.6475 16.9799C66.2732 16.9799 65.5906 16.2663 65.5906 15.2301C65.5906 14.2526 66.0702 13.6269 67.5553 13.1773L72.2502 11.7794V12.1606C72.2502 14.8391 70.2671 16.9701 67.6475 16.9701M69.5845 0.00977564C63.792 0.00977564 60.4991 3.01083 60.6466 8.12337H66.2732C66.3008 5.95323 67.3431 4.91704 69.5937 4.91704C71.1987 4.91704 72.2041 5.63064 72.2041 6.69616C72.2041 7.38044 71.9551 7.64437 70.9681 7.94741L66.4392 9.25732C62.1132 10.5086 60.167 12.405 60.167 15.582C60.167 19.2967 62.722 21.7894 66.4945 21.7894C69.4185 21.7894 71.3278 20.5381 72.2871 18.192V21.3104H77.4893V7.48797C77.4893 2.46341 74.4824 0 69.5845 0" fill="white"/>
<path d="M163.788 0.527344H157.792L153.577 8.24992H151.409V0.527344H145.986V21.3197H151.409V13.3625H153.54L158.078 21.3197H164.203L158.217 10.7133L163.788 0.527344Z" fill="white"/>
<path d="M113.342 16.9795C111.996 16.9795 111.313 16.2659 111.313 15.2297C111.313 14.2522 111.793 13.6559 113.278 13.2062L117.973 11.8083V12.1602C117.973 14.9853 115.971 16.9697 113.333 16.9697L113.342 16.9795ZM115.307 0.0191751C109.514 0.0191751 106.221 3.02023 106.369 8.13277H111.996C112.023 5.96263 113.065 4.92643 115.316 4.92643C116.921 4.92643 117.936 5.64004 117.936 6.70556C117.936 7.38984 117.687 7.65378 116.7 7.95681L112.171 9.26672C107.845 10.518 105.899 12.4144 105.899 15.5914C105.899 19.3061 108.454 21.7988 112.226 21.7988C115.15 21.7988 117.059 20.5867 118.019 18.2014V21.3198H123.221V7.49737C123.221 2.4728 120.214 0.00939941 115.316 0.00939941" fill="white"/>
<path d="M134.963 16.4815C132.546 16.4815 131.08 14.7023 131.08 10.929C131.08 7.1557 132.565 5.34725 135.018 5.34725C137.324 5.34725 138.699 7.1557 138.699 10.929C138.699 14.849 137.38 16.4815 134.954 16.4815H134.963ZM136.485 0.0196533C133.884 0.0196533 131.937 1.41754 131.172 3.64633V0.527974H125.748V26.9998H131.172V18.2704C131.974 20.4796 133.911 21.7993 136.485 21.7993C140.986 21.7993 143.993 18.1139 143.993 10.929C143.993 3.74408 140.986 0.029429 136.485 0.029429" fill="white"/>
<path d="M95.6233 0.527344L91.8969 13.2647L88.2627 0.527344H82.2672L79.1495 21.3197H84.1304L86.0213 8.38678L89.6924 21.3197H93.9722L97.7632 8.15217L99.5895 21.3197H104.653L101.536 0.527344H95.6233Z" fill="white"/>
<path d="M173.094 4.82916C175.271 4.82916 176.563 5.81648 176.922 7.91819H168.87C169.488 5.95333 171.01 4.82916 173.094 4.82916ZM173.039 16.6867C170.41 16.6867 168.741 14.8783 168.584 11.9359H182.042C182.042 11.9359 182.125 10.8704 182.125 9.76574C182.125 3.52903 178.61 0.0196533 173.104 0.0196533C167.283 0.0196533 163.234 4.50657 163.234 10.8899C163.234 17.2733 167.228 21.8188 173.048 21.8188C178.444 21.8188 182.078 18.5147 182.189 13.6759H176.793C176.48 15.5821 175.161 16.677 173.058 16.677" fill="white"/>
</svg>
