<svg width="13" height="14" viewBox="0 0 13 14" fill="none" xmlns="http://www.w3.org/2000/svg">
<path d="M7.64102 0C5.02181 0 2.86665 2.03143 2.67416 4.60422C2.66385 4.72968 2.65869 4.85514 2.65869 4.98232C2.65869 5.58041 2.76525 6.15271 2.95773 6.68549C3.6555 8.59661 5.49272 9.96465 7.64102 9.96465C7.73726 9.96465 7.8335 9.96121 7.92803 9.95605C8.65329 9.91481 9.33903 9.71716 9.94914 9.3975C11.5372 8.56224 12.6233 6.89688 12.6233 4.98232C12.6233 2.23423 10.3891 0 7.64102 0ZM9.66557 7.31623C9.18951 7.73042 8.58626 8.00197 7.92115 8.06212C7.82835 8.07071 7.73554 8.07415 7.64102 8.07415C6.26954 8.07415 5.10603 7.17702 4.70215 5.9396C4.60247 5.63884 4.54919 5.31574 4.54919 4.98232C4.54919 4.64891 4.60075 4.34127 4.69527 4.04567C5.09228 2.79622 6.26267 1.8905 7.64102 1.8905C9.3459 1.8905 10.7328 3.27744 10.7328 4.98232C10.7328 5.91382 10.3186 6.74908 9.66557 7.31623Z" fill="#A2A2A2"/>
<path d="M9.6656 7.31622C9.18954 7.73041 8.5863 8.00195 7.92119 8.0621C8.02087 8.36287 8.07415 8.68597 8.07415 9.01938C8.07415 9.3528 8.02259 9.66044 7.92806 9.95604C7.53106 11.2038 6.36067 12.1095 4.98232 12.1095C3.27744 12.1095 1.8905 10.7226 1.8905 9.01938C1.8905 8.08788 2.30469 7.25091 2.95777 6.68548C3.43383 6.27129 4.03879 5.99974 4.70219 5.93959C4.60251 5.63883 4.54923 5.31573 4.54923 4.98231C4.54923 4.6489 4.60079 4.34126 4.69531 4.04565C3.96833 4.0869 3.28431 4.28454 2.6742 4.60421C1.08618 5.43775 0 7.10311 0 9.01938C0 11.7658 2.23423 14 4.98232 14C7.73042 14 9.75669 11.9686 9.94918 9.39748C9.95949 9.27202 9.96465 9.14656 9.96465 9.01938C9.96465 8.4213 9.85809 7.84728 9.6656 7.31622Z" fill="#A2A2A2"/>
</svg>
