<svg width="8" height="7" viewBox="0 0 8 7" fill="none" xmlns="http://www.w3.org/2000/svg">
<path d="M3.68614 0.635944C3.81453 0.375808 4.18547 0.375809 4.31386 0.635945L5.09414 2.21696C5.14512 2.32026 5.24367 2.39186 5.35766 2.40843L7.10242 2.66195C7.3895 2.70367 7.50412 3.05646 7.29639 3.25895L6.03388 4.4896C5.95139 4.57 5.91374 4.68585 5.93322 4.79939L6.23126 6.5371C6.2803 6.82301 5.9802 7.04105 5.72343 6.90606L4.16287 6.08563C4.06091 6.03202 3.93909 6.03202 3.83713 6.08563L2.27657 6.90606C2.0198 7.04105 1.7197 6.82301 1.76874 6.5371L2.06678 4.79939C2.08625 4.68585 2.04861 4.57 1.96612 4.4896L0.703606 3.25895C0.495875 3.05646 0.610504 2.70367 0.897581 2.66195L2.64234 2.40843C2.75633 2.39186 2.85488 2.32026 2.90586 2.21696L3.68614 0.635944Z" fill="#8654CC"/>
</svg>
