<svg width="15" height="14" viewBox="0 0 15 14" fill="none" xmlns="http://www.w3.org/2000/svg">
<path d="M1.53271 10.7805L2.90099 1.43C2.92489 1.26713 2.96555 1.10718 3.02244 0.952637L1.68206 1.02066C0.70473 1.0703 -0.0472184 1.90271 0.00231307 2.88004L0.481406 12.318C0.529207 13.2596 1.30603 13.9989 2.24886 14C2.27946 14 2.31007 13.9992 2.34089 13.9977L5.94977 13.8145L3.52824 13.4601C2.23815 13.2698 1.3455 12.071 1.53271 10.7805Z" fill="#A2A2A2"/>
<path d="M13.6725 1.73988C13.3927 1.36212 12.9733 1.11186 12.508 1.04503L5.49517 0.0189271C4.52693 -0.122854 3.62704 0.547227 3.48536 1.51558L2.11708 10.866C1.98482 11.8319 2.65046 12.7257 3.61373 12.8757L10.6267 13.9019C11.5925 14.0343 12.4864 13.3686 12.6364 12.4053L14.0047 3.05484C14.0741 2.58981 13.9545 2.11623 13.6725 1.73988ZM10.3872 7.88686C9.54864 8.51131 8.38822 9.04112 7.96018 9.22703C7.85765 9.27158 7.73869 9.25417 7.65314 9.18204C7.29637 8.88139 6.33645 8.0413 5.7119 7.20272C4.21492 5.19291 6.89438 3.19749 8.39125 5.20719C10.4013 3.71054 12.3966 6.39021 10.3865 7.88686H10.3872Z" fill="#A2A2A2"/>
</svg>
