<svg width="21" height="20" viewBox="0 0 21 20" fill="none" xmlns="http://www.w3.org/2000/svg">
<g clip-path="url(#clip0_1597_18)">
<path d="M6.88242 5H4.52075C4.0732 5 3.64398 5.17779 3.32751 5.49426C3.01104 5.81072 2.83325 6.23995 2.83325 6.6875V9.04917C2.83325 9.49667 3.01075 9.92583 3.32742 10.2425L8.42408 15.3392C8.58079 15.4959 8.76683 15.6202 8.97158 15.705C9.17633 15.7899 9.39579 15.8335 9.61742 15.8335C9.83905 15.8335 10.0585 15.7899 10.2633 15.705C10.468 15.6202 10.654 15.4959 10.8108 15.3392L13.1724 12.9775C13.3291 12.8208 13.4535 12.6348 13.5383 12.43C13.6231 12.2253 13.6668 12.0058 13.6668 11.7842C13.6668 11.5625 13.6231 11.3431 13.5383 11.1383C13.4535 10.9336 13.3291 10.7475 13.1724 10.5908L8.07492 5.49417C7.75862 5.17791 7.3297 5.00017 6.88242 5Z" stroke="#252822" stroke-width="1.25" stroke-linecap="round" stroke-linejoin="round"/>
<path d="M14.9774 15.3392L17.339 12.9775C17.4958 12.8208 17.6201 12.6348 17.7049 12.43C17.7897 12.2253 17.8334 12.0058 17.8334 11.7842C17.8334 11.5625 17.7897 11.3431 17.7049 11.1383C17.6201 10.9336 17.4958 10.7475 17.339 10.5908L11.4082 4.66083" stroke="#252822" stroke-width="1.25" stroke-linecap="round" stroke-linejoin="round"/>
<path d="M5.33328 7.5H5.32495" stroke="#252822" stroke-width="1.25" stroke-linecap="round" stroke-linejoin="round"/>
</g>
<defs>
<clipPath id="clip0_1597_18">
<rect width="20" height="20" fill="white" transform="translate(0.333252)"/>
</clipPath>
</defs>
</svg>
