<svg width="15" height="14" viewBox="0 0 15 14" fill="none" xmlns="http://www.w3.org/2000/svg">
<path d="M6.48786 0.447805C6.84719 -0.149268 7.71285 -0.149268 8.07218 0.447805L9.86761 3.43124C9.99673 3.64575 10.2073 3.79872 10.4511 3.85521L13.8434 4.64086C14.5223 4.7981 14.7898 5.62135 14.333 6.14758L12.0504 8.77708C11.8863 8.96615 11.8059 9.21369 11.8275 9.46308L12.1285 12.9321C12.1888 13.6264 11.4885 14.1352 10.8468 13.8633L7.64066 12.505C7.41014 12.4074 7.14989 12.4074 6.91938 12.505L3.71318 13.8633C3.07153 14.1352 2.37123 13.6264 2.43148 12.9321L2.73254 9.46308C2.75419 9.21369 2.67376 8.96615 2.50965 8.77708L0.22706 6.14758C-0.229755 5.62135 0.0377403 4.7981 0.716626 4.64086L4.10887 3.85521C4.35277 3.79872 4.56332 3.64575 4.69242 3.43124L6.48786 0.447805Z" fill="#A2A2A2"/>
</svg>
