<svg width="20" height="20" viewBox="0 0 20 20" fill="none" xmlns="http://www.w3.org/2000/svg">
<path d="M5.14001 6.52778C5.14001 7.26449 5.43267 7.97103 5.95361 8.49196C6.47454 9.0129 7.18108 9.30556 7.91779 9.30556C8.6545 9.30556 9.36104 9.0129 9.88198 8.49196C10.4029 7.97103 10.6956 7.26449 10.6956 6.52778C10.6956 5.79107 10.4029 5.08453 9.88198 4.56359C9.36104 4.04266 8.6545 3.75 7.91779 3.75C7.18108 3.75 6.47454 4.04266 5.95361 4.56359C5.43267 5.08453 5.14001 5.79107 5.14001 6.52778Z" stroke="#252822" stroke-width="1.25" stroke-linecap="round" stroke-linejoin="round"/>
<path d="M3.75 16.25V14.8612C3.75 14.1244 4.04266 13.4179 4.56359 12.897C5.08453 12.376 5.79107 12.0834 6.52778 12.0834H9.30556C10.0423 12.0834 10.7488 12.376 11.2697 12.897C11.7907 13.4179 12.0833 14.1244 12.0833 14.8612V16.25" stroke="#252822" stroke-width="1.25" stroke-linecap="round" stroke-linejoin="round"/>
<path d="M12.7767 3.84119C13.3742 3.99417 13.9038 4.34167 14.282 4.8289C14.6602 5.31613 14.8655 5.91537 14.8655 6.53216C14.8655 7.14894 14.6602 7.74819 14.282 8.23541C13.9038 8.72264 13.3742 9.07014 12.7767 9.22313" stroke="#252822" stroke-width="1.25" stroke-linecap="round" stroke-linejoin="round"/>
<path d="M16.25 16.25V14.8611C16.2464 14.248 16.0402 13.6533 15.6633 13.1697C15.2865 12.6861 14.7603 12.3408 14.1666 12.1875" stroke="#252822" stroke-width="1.25" stroke-linecap="round" stroke-linejoin="round"/>
</svg>
